<svg width="34" height="32" viewBox="0 0 34 32" fill="none" xmlns="http://www.w3.org/2000/svg">
<path d="M33.0667 16C33.0667 7.184 25.6432 0 16.5333 0C7.42347 0 0 7.184 0 16C0 20.64 2.06667 24.816 5.34027 27.744C5.34027 27.76 5.34027 27.76 5.32373 27.776C5.48907 27.936 5.68747 28.064 5.8528 28.208C5.952 28.288 6.03467 28.368 6.13387 28.432C6.43147 28.672 6.76213 28.896 7.07627 29.12C7.192 29.2 7.2912 29.264 7.40693 29.344C7.72107 29.552 8.05173 29.744 8.39893 29.92C8.51467 29.984 8.64693 30.064 8.76267 30.128C9.09333 30.304 9.44053 30.464 9.80427 30.608C9.93653 30.672 10.0688 30.736 10.2011 30.784C10.5648 30.928 10.9285 31.056 11.2923 31.168C11.4245 31.216 11.5568 31.264 11.6891 31.296C12.0859 31.408 12.4827 31.504 12.8795 31.6C12.9952 31.632 13.1109 31.664 13.2432 31.68C13.7061 31.776 14.1691 31.84 14.6485 31.888C14.7147 31.888 14.7808 31.904 14.8469 31.92C15.4091 31.968 15.9712 32 16.5333 32C17.0955 32 17.6576 31.968 18.2032 31.92C18.2693 31.92 18.3355 31.904 18.4016 31.888C18.8811 31.84 19.344 31.776 19.8069 31.68C19.9227 31.664 20.0384 31.616 20.1707 31.6C20.5675 31.504 20.9808 31.424 21.3611 31.296C21.4933 31.248 21.6256 31.2 21.7579 31.168C22.1216 31.04 22.5019 30.928 22.8491 30.784C22.9813 30.736 23.1136 30.672 23.2459 30.608C23.5931 30.464 23.9403 30.304 24.2875 30.128C24.4197 30.064 24.5355 29.984 24.6512 29.92C24.9819 29.728 25.3125 29.552 25.6432 29.344C25.7589 29.28 25.8581 29.2 25.9739 29.12C26.3045 28.896 26.6187 28.672 26.9163 28.432C27.0155 28.352 27.0981 28.272 27.1973 28.208C27.3792 28.064 27.5611 27.92 27.7264 27.776C27.7264 27.76 27.7264 27.76 27.7099 27.744C31 24.816 33.0667 20.64 33.0667 16ZM24.7008 23.952C20.2203 21.04 12.8795 21.04 8.36587 23.952C7.6384 24.416 7.0432 24.96 6.5472 25.552C4.03413 23.088 2.48 19.712 2.48 16C2.48 8.496 8.7792 2.4 16.5333 2.4C24.2875 2.4 30.5867 8.496 30.5867 16C30.5867 19.712 29.0325 23.088 26.5195 25.552C26.04 24.96 25.4283 24.416 24.7008 23.952Z" fill="white"/>
<path d="M16.5335 7.8875C13.1111 7.8875 10.3335 10.5755 10.3335 13.8875C10.3335 17.1355 12.9623 19.7755 16.4508 19.8715H16.5996H16.7154H16.7484C20.0882 19.7595 22.717 17.1355 22.7335 13.8875C22.7335 10.5755 19.9559 7.8875 16.5335 7.8875Z" fill="white"/>
</svg>
