<svg width="32" height="32" viewBox="0 0 32 32" fill="none" xmlns="http://www.w3.org/2000/svg">
<path d="M21.98 24C21.6371 24 21.3082 24.1405 21.0657 24.3905C20.8233 24.6406 20.687 24.9797 20.687 25.3333V29.3333H2.58588V5.33333H6.4647V6.66667C6.4647 7.02029 6.60093 7.35943 6.84341 7.60948C7.08588 7.85953 7.41473 8 7.75764 8H15.5153C15.8582 8 16.187 7.85953 16.4295 7.60948C16.672 7.35943 16.8082 7.02029 16.8082 6.66667V5.33333H20.687C20.687 5.68696 20.8233 6.02609 21.0657 6.27614C21.3082 6.52619 21.6371 6.66667 21.98 6.66667C22.3229 6.66667 22.6517 6.52619 22.8942 6.27614C23.1367 6.02609 23.2729 5.68696 23.2729 5.33333C23.2729 4.62609 23.0004 3.94781 22.5155 3.44771C22.0305 2.94762 21.3728 2.66667 20.687 2.66667H16.5703C16.3038 1.88946 15.811 1.21612 15.1593 0.738785C14.5076 0.261446 13.7288 0.00341729 12.9294 0H10.3435C9.54414 0.00341729 8.76535 0.261446 8.11362 0.738785C7.46189 1.21612 6.96908 1.88946 6.70262 2.66667H2.58588C1.90006 2.66667 1.24237 2.94762 0.757424 3.44771C0.272477 3.94781 0 4.62609 0 5.33333V29.3333C0 30.0406 0.272477 30.7189 0.757424 31.219C1.24237 31.719 1.90006 32 2.58588 32H20.687C21.3728 32 22.0305 31.719 22.5155 31.219C23.0004 30.7189 23.2729 30.0406 23.2729 29.3333V25.3333C23.2729 24.9797 23.1367 24.6406 22.8942 24.3905C22.6517 24.1405 22.3229 24 21.98 24ZM9.05057 4C9.05057 3.64638 9.18681 3.30724 9.42929 3.05719C9.67176 2.80714 10.0006 2.66667 10.3435 2.66667H12.9294C13.2723 2.66667 13.6011 2.80714 13.8436 3.05719C14.0861 3.30724 14.2223 3.64638 14.2223 4V5.33333H9.05057V4ZM12.9294 14.6667H6.4647C6.12179 14.6667 5.79294 14.5262 5.55047 14.2761C5.308 14.0261 5.17176 13.687 5.17176 13.3333C5.17176 12.9797 5.308 12.6406 5.55047 12.3905C5.79294 12.1405 6.12179 12 6.4647 12H12.9294C13.2723 12 13.6011 12.1405 13.8436 12.3905C14.0861 12.6406 14.2223 12.9797 14.2223 13.3333C14.2223 13.687 14.0861 14.0261 13.8436 14.2761C13.6011 14.5262 13.2723 14.6667 12.9294 14.6667ZM10.3435 18.6667C10.3435 19.0203 10.2073 19.3594 9.9648 19.6095C9.72233 19.8595 9.39348 20 9.05057 20H6.4647C6.12179 20 5.79294 19.8595 5.55047 19.6095C5.308 19.3594 5.17176 19.0203 5.17176 18.6667C5.17176 18.313 5.308 17.9739 5.55047 17.7239C5.79294 17.4738 6.12179 17.3333 6.4647 17.3333H9.05057C9.39348 17.3333 9.72233 17.4738 9.9648 17.7239C10.2073 17.9739 10.3435 18.313 10.3435 18.6667ZM10.3435 24C10.3435 24.3536 10.2073 24.6928 9.9648 24.9428C9.72233 25.1929 9.39348 25.3333 9.05057 25.3333H6.4647C6.12179 25.3333 5.79294 25.1929 5.55047 24.9428C5.308 24.6928 5.17176 24.3536 5.17176 24C5.17176 23.6464 5.308 23.3072 5.55047 23.0572C5.79294 22.8071 6.12179 22.6667 6.4647 22.6667H9.05057C9.39348 22.6667 9.72233 22.8071 9.9648 23.0572C10.2073 23.3072 10.3435 23.6464 10.3435 24ZM30.6517 9.724L26.7729 5.724C26.5304 5.47404 26.2016 5.33362 25.8588 5.33362C25.5159 5.33362 25.1872 5.47404 24.9447 5.724L12.0153 19.0573C11.7728 19.3073 11.6365 19.6464 11.6365 20V24C11.6365 24.3536 11.7727 24.6928 12.0152 24.9428C12.2576 25.1929 12.5865 25.3333 12.9294 25.3333H16.8082C17.1511 25.3333 17.4799 25.1927 17.7223 24.9427L30.6517 11.6093C30.8941 11.3593 31.0303 11.0202 31.0303 10.6667C31.0303 10.3131 30.8941 9.97404 30.6517 9.724ZM16.2729 22.6667H14.2223V20.552L25.8588 8.552L27.9094 10.6667L16.2729 22.6667Z" fill="white"/>
</svg>
